<svg width="1380" height="1188" viewBox="0 0 1380 1188" xmlns="http://www.w3.org/2000/svg"><defs><linearGradient x1="71.2%" y1="33.29%" x2="36.84%" y2="76.52%" id="a"><stop stop-color="#AAE9FF" offset="0%"/><stop stop-color="#F39BC4" offset="100%"/></linearGradient><linearGradient x1="89.68%" y1="23.07%" x2="31.5%" y2="79.94%" id="b"><stop stop-color="#CD0CA0" offset="0%"/><stop stop-color="#1DDCF8" offset="100%"/></linearGradient></defs><g fill="none" fill-rule="nonzero"><path d="M24.13 188A24.13 24.13 0 0 0 0 212.12v951.76A24.13 24.13 0 0 0 24.13 1188l1324.74-.01a24.13 24.13 0 0 0 24.13-24.13V304.65a24.13 24.13 0 0 0-24.13-24.13H543.14l-52.65-81.47A24.14 24.14 0 0 0 470.22 188H24.15l-.02-.01zM45 233.01h413.86l59.78 92.51H1328V1143L45 1143V233.01z" fill="url(#a)"/><path d="M360.83 1143.3c.4-2.7 1.1-7.2 1.6-10.2 2.5-14.8-.4-42-7.2-68.6-.6-2.2-1.5-5.8-2.1-8-3.3-12.6-14.3-44.2-19.2-54.9-1.4-3.1-2.6-5.8-2.6-6.1 0-1.4-17.4-37.3-23.8-49-7.9-14.4-20.3-33.2-36.1-54.5-7.2-9.8-23.4-30.4-25.1-32-.3-.3-3.4-3.9-7-8-11.2-13-16-18-36-38-26.9-27-47.1-45.6-64.3-59.3-2.6-2.1-5.1-4.7-5.7-5.7-.9-1.6-.3-1.6 5.8.7 10.7 3.9 20.3 7.3 25.2 8.9 2.5.8 5.4 1.9 6.5 2.3 1.1.5 4 1.6 6.5 2.6 7.4 2.8 9.4 3.7 11.2 4.6 1 .5 2.5.9 3.3.9.8 0 2.3.4 3.3 1 2.1 1.1 7.6 3.4 12.2 5 5 1.7 8.1 3 11.3 4.6 1.6.8 3.5 1.4 4.3 1.4.8 0 2.2.4 3.2.9 1.8.9 3.8 1.8 11.2 4.6 2.5 1 5.4 2.1 6.5 2.5 1.1.4 3.6 1.4 5.5 2 4.6 1.7 10.1 3.9 12.2 5.1 1 .5 2.5.9 3.3.9.8 0 2.3.4 3.3.9 1.4.8 6.6 2.9 17.7 7.1l13 5c1.1.5 4.7 1.8 8 3 3.3 1.3 7.4 2.8 9 3.5 1.7.7 4.6 1.8 6.5 2.5 1.9.7 4.9 1.8 6.5 2.5 1.7.7 4.8 1.9 7 2.6 2.2.7 4.5 1.6 5 2 .6.4 2.4 1 4.1 1.3 2.6.6 3.5.2 7-3.6 2.1-2.4 7.3-8.6 11.4-13.8 4.1-5.2 7.7-9.7 8-10 .3-.3 5-6.1 10.5-13 5.4-6.9 10.2-12.7 10.5-13 .9-.8 12.4-15.2 14-17.5.8-1.2 3.4-4.4 5.7-7.1 2.2-2.7 8.8-10.7 14.5-17.9 9.7-12.1 27.3-34.1 30.1-37.5.7-.8 5.7-7.1 11.2-14 5.5-6.9 10.2-12.7 10.5-13 .3-.3 3.2-3.9 6.5-8 5.8-7.1 27.3-33.9 29.8-37 .7-.8 5.7-7.1 11.2-14 5.4-6.9 10.2-12.7 10.5-13 .3-.3 3.8-4.7 7.9-9.7 4.1-5.1 8.1-9.3 8.9-9.3.8 0 4.9 1.9 9.1 4.2 10.2 5.6 18.7 10.1 24.1 12.9 2.5 1.3 4.7 2.6 5 2.9.5.5 2.2 1.5 12.5 7 2.8 1.4 7.7 4.2 11 6 3.3 1.8 7.8 4.3 10 5.4 2.2 1.2 4.2 2.3 4.5 2.6.7.7.5.6 26.5 14.5 3.3 1.8 7.8 4.3 10 5.5 2.2 1.3 6 3.4 8.5 4.8s6.1 3.4 8 4.5c1.9 1.1 6.8 3.7 10.8 5.9 9.9 5.3 11.6 6.2 12.2 6.9.3.3 2.1 1.3 4 2.2 1.9 1 6.7 3.5 10.5 5.7 3.9 2.1 8.6 4.7 10.5 5.6 1.9 1 5.1 2.7 7 3.9 3.6 2.2 13.8 7.9 22.5 12.5 6.2 3.3 14.7 8 27.3 15.1 4 2.3 15 8.3 22.2 12 2.5 1.3 4.7 2.6 5 2.9.3.3 2.3 1.4 4.5 2.5s4.2 2.2 4.5 2.5c.3.3 2.3 1.4 4.5 2.6 2.2 1.1 6.7 3.6 10 5.4 3.3 1.8 8.3 4.6 11 6 10.3 5.5 12 6.5 12.5 7 .3.3 2.5 1.6 5 2.9 11.9 6.2 30.2 16.2 31.5 17.1 1.2.9 8.4 4.9 18.3 10.2 9.6 5.1 11.6 6.2 12.2 6.8.3.3 2.1 1.3 4 2.2 1.9 1 6.7 3.5 10.5 5.7 3.9 2.2 9 5 11.5 6.3 2.5 1.3 6.6 3.6 9.3 5.1 2.6 1.5 6.8 3.9 9.5 5.4 9.9 5.5 10 5.7 4.6 10.5-2 1.8-4.2 3.8-4.8 4.3-.6.6-4.5 3.9-8.6 7.5s-7.7 6.7-8 7c-.3.3-3.9 3.5-8 7-4.1 3.6-7.7 6.7-8 7-.3.3-5.7 5-12 10.5s-11.7 10.2-12 10.5c-.3.3-3.9 3.4-8 7s-8 6.9-8.6 7.5c-.6.5-7.3 6.4-14.9 13-14.9 12.9-30.2 26.2-35 30.4a1217.32 1217.32 0 0 0-22 19.3c-2.2 2-5.1 4.6-6.5 5.8-1.4 1.2-8.3 7.2-15.5 13.3-7.1 6.2-16.5 14.6-20.8 18.7-7.3 6.9-7.7 7.5-5.5 8.1 1.3.3 3.4 1.1 4.6 1.8 5.4 2.7 6.3 3.1 7.7 3.1.8 0 2.3.4 3.3.9 1.4.8 6.6 2.9 17.7 7.1 4.9 1.9 11.2 4.3 13.5 5.3 1.4.5 3.4 1.3 4.5 1.7 2.7 1 10.4 4 13.5 5.2 1.4.6 3.3 1.4 4.2 1.9 1 .5 2.4.9 3.2.9.8 0 2.7.6 4.3 1.4 3.1 1.5 5.6 2.6 12 5 2.3.8 6.1 2.4 8.5 3.5 2.4 1 6.4 2.7 9 3.7 2.7 1.1 4.8 2.2 4.8 2.7 0 .4-6.6.7-14.7.7-27.5 0-84.7 3-114.5 6-25 2.5-31 3.2-41.3 4.6-23.7 3.1-35.1 4.7-48 6.9-4.4.7-11.4 1.8-15.5 2.5-4.1.6-9.3 1.5-11.5 2-2.2.5-8 1.6-13 2.5-8.6 1.5-14.3 2.7-23 4.6-2.2.5-8.5 1.8-14 3s-11.6 2.5-13.5 3c-1.9.4-5.5 1.3-8 1.8-2.5.6-9 2.2-14.5 3.6-5.5 1.5-11.6 3-13.5 3.5-1.9.5-7.8 2.1-13 3.5-5.2 1.5-10.8 3-12.5 3.5-1.6.4-6.8 2-11.5 3.5s-9.8 3-11.5 3.5c-5.3 1.4-16.9 5.1-19 6-1.1.4-2.9 1-4 1.3-1.1.3-6.3 1.9-11.5 3.7-9.8 3.3-10.4 3.6-18 6.5-2.5 1-5.4 2.1-6.5 2.5-11.3 4.2-45.6 18.1-51.3 20.7-3.9 1.8-7.4 3.3-7.7 3.3-.2 0-3.7 1.6-7.6 3.5-4 1.9-8.1 3.5-9.1 3.5-1.7 0-1.9-.5-1.3-4.7zm643-353.2c-.6-.5-3.7-2.3-7-4.1-3.3-1.8-7.2-4.1-8.7-5.1-1.4-1.1-2.9-1.9-3.3-1.9-.3 0-3.1-1.6-6.1-3.5-3-1.9-5.6-3.5-5.7-3.5-.2 0-5.9-3.2-12.8-7.1-6.8-4-14.4-8.3-16.9-9.7-2.5-1.4-5.7-3.3-7.2-4.3-1.4-1.1-2.8-1.9-3.1-1.9-.3 0-3.8-1.9-7.9-4.3-4-2.4-9.3-5.5-11.8-6.9-2.5-1.4-12.1-6.9-21.5-12.3-9.3-5.4-19-10.9-21.5-12.3-2.5-1.4-5.7-3.3-7.2-4.3-1.4-1.1-2.8-1.9-3.1-1.9-.3 0-3.8-1.9-7.9-4.3-4-2.4-9.3-5.5-11.8-6.9-2.5-1.4-7.4-4.2-11-6.3-3.6-2.1-8.5-4.9-11-6.3a71.4 71.4 0 0 1-5.5-3.2c-.5-.4-3.2-2-6-3.6-9.7-5.3-11.4-6.3-15.4-8.8-2.2-1.5-4.3-2.6-4.6-2.6-.2 0-2.9-1.6-5.9-3.5-3-1.9-5.7-3.5-6-3.5-.3 0-6.6-3.6-14.2-8-7.5-4.4-13.8-8-14.1-8-.2 0-2.9-1.6-5.9-3.5-3-1.9-5.6-3.5-5.8-3.5-.3 0-3.7-1.9-7.8-4.3-7-4.2-11.3-6.7-21.5-12.3-2.7-1.5-6-3.5-7.5-4.5-1.4-1.1-2.8-1.9-3.1-1.9-.3 0-5.1-2.7-10.7-6s-10.4-6-10.7-6c-.3 0-1.7-.8-3.1-1.9-1.5-1-4.7-2.9-7.2-4.3s-12.1-6.9-21.5-12.3c-9.3-5.4-18.4-10.6-20.2-11.6-1.7-1-5-2.9-7.2-4.3-2.2-1.5-4.2-2.6-4.5-2.6-.2 0-6.4-3.5-13.7-7.8-7.4-4.3-14.2-8.1-15.2-8.5-4.3-1.6-2.7-4.8 10.3-20.8 2.5-3 5.9-7.3 7.7-9.5 6.3-7.9 25.5-32 28.1-35.3 1.5-1.8 8-9.9 14.5-18 6.5-8 13.3-16.5 15-18.7 5.9-7.7 21.1-26.9 22.2-28 .7-.7 5.8-7.1 11.5-14.3 6.8-8.6 11.1-13.1 12.3-13.1 1.9 0 34.9 22.4 35.5 24.1.2.5.9.9 1.5.9.7 0 4.8 2.7 9.2 6 4.4 3.3 8.2 6 8.5 6 .3 0 1.8 1.1 3.4 2.5 1.6 1.4 3.2 2.5 3.5 2.5.3 0 2.2 1.4 4.1 3 1.9 1.6 4 3 4.6 3 .6 0 2.1 1.1 3.4 2.5 1.3 1.4 2.8 2.5 3.4 2.5.6 0 2.7 1.4 4.6 3 1.9 1.6 3.8 3 4.2 3 .4 0 1.3.6 2 1.3.7.7 24.7 17.7 53.3 37.7 28.6 20 52.2 36.7 52.5 37 .3.4 2 1.5 3.8 2.5 1.7 1.1 3.2 2.3 3.2 2.7 0 .4.4.8 1 .8.5 0 3.8 2 7.2 4.5 3.5 2.5 8.1 5.7 10.3 7.2 2.2 1.4 4.6 3.2 5.3 4 .7.7 1.7 1.3 2.1 1.3.4 0 1.6.8 2.7 1.8 3.2 2.9 12.3 9.2 13.4 9.2.6 0 1 .3 1 .8 0 .4 2.1 2 4.8 3.7 2.6 1.6 4.9 3.2 5.2 3.5.3.4 23.2 16.6 51 36s50.7 35.6 51 36c.3.3 2.6 1.9 5.2 3.5 2.7 1.7 4.8 3.3 4.8 3.8 0 .4.5.7 1.1.7.9 0 6.3 3.8 12.4 8.6 1.1.9 3 2.1 4.3 2.7 1.2.5 2.2 1.4 2.2 1.9 0 .4.7.8 1.5.8s1.5.4 1.5.9.8 1.2 1.8 1.5c1 .4 2.7 1.4 3.8 2.4 1 1 7.9 6 15.1 11 7.3 5.1 13.5 9.8 13.9 10.4.4.6-1 2.6-3.2 4.5-2.1 1.9-5.7 5.1-7.9 7.1-2.2 2.1-7.4 6.6-11.5 10.2-4.1 3.5-7.7 6.7-8 7-.3.3-2.3 2-4.5 3.9s-7.4 6.4-11.5 10.1c-4.1 3.7-9.3 8.2-11.5 10.1-2.2 1.9-4.2 3.6-4.5 3.9-.3.3-3.9 3.5-8 7-4.1 3.6-9.4 8.3-11.9 10.5-5.3 4.8-4.8 4.4-14.1 12.5-4.1 3.5-7.7 6.7-8 7-.3.3-3.3 2.9-6.6 5.8-5.9 5-8.9 6.2-10.9 4.3zm157.5-148.6c-4.1-3.1-8.2-6.1-9-6.8-.8-.7-7.1-5.4-14-10.5s-13.2-9.8-14-10.5c-.8-.7-18.6-14-39.5-29.7s-38.7-29-39.5-29.7c-.8-.7-7.1-5.4-14-10.5s-13.2-9.8-14-10.5c-.8-.7-7.1-5.4-14-10.5s-13-9.7-13.6-10.3c-.7-.5-55-41.3-120.7-90.5s-119.8-90.1-120.1-90.8c-.3-.7.6-3 2.2-5 3.2-4.3 14.4-18.5 15.2-19.2.7-.7 12.1-14.9 14.5-18.1 2.4-3.2 21.7-27.2 22.5-27.9.5-.5 11.5-14.1 13.6-16.8.9-1.2 1.5-1.2 4.1.2 1.7.8 3.7 2.1 4.5 2.9.7.7 5.4 4.6 10.3 8.7 10.7 8.9 13.4 11.2 14.9 12.5.9.9 7.4 6.3 21.1 17.6 1.1 1 4.9 4.1 8.4 7 3.5 3 8.9 7.4 12 9.8 3.1 2.5 5.8 4.7 6.1 5 .5.6 11.6 10.1 15.5 13.2 1.1 1 4.9 4.1 8.4 7 3.5 3 8.9 7.4 12 9.8 3.1 2.5 5.8 4.7 6.1 5 .3.4 3.4 3.1 7 6.1 3.6 3 6.7 5.7 7 6 .3.3 2.8 2.3 5.5 4.5 2.8 2.1 5.2 4.2 5.5 4.5.3.4 3 2.6 6 5.1 8.4 6.8 24.4 20.1 25 20.8.3.3 2.8 2.4 5.5 4.6 2.8 2.1 5.2 4.2 5.5 4.5.4.4 13.2 11.2 20.5 17.1 14.6 12.1 21.1 17.5 21.5 17.9.3.3 2.7 2.4 5.5 4.5 4.3 3.4 8.3 6.9 12.9 11 .6.6 3.4 2.8 6.1 5 2.8 2.1 5.2 4.2 5.5 4.5.3.3 3 2.5 6 5s5.7 4.7 6 5c.3.3 4.6 3.9 9.5 8 5 4.1 9.2 7.7 9.5 8 .3.3 1.4 1.3 2.6 2.1 1.2.8 4.9 3.9 8.4 6.9 3.5 3 7.2 6.1 8.4 6.9 1.2.8 2.3 1.7 2.6 2.1.7.8 17.3 14.7 24.5 20.5 3.3 2.7 6.2 5.1 6.5 5.5.3.3 2.8 2.4 5.5 4.5 2.8 2.2 5.2 4.2 5.5 4.5.3.3 4.6 3.9 9.5 8 5 4.1 9.2 7.7 9.5 8 .3.3 2.6 2.2 5.2 4.3 2.6 2.1 5.3 4.3 6 5 .7.7 3.6 3 6.3 5.2 2.8 2.2 5.2 4.2 5.5 4.5.3.3 4.5 3.9 9.3 7.9 11.3 9.5 11.7 10.3 7.6 13.9-1.8 1.5-9.6 8-17.3 14.6-7.8 6.5-19.2 16.1-25.5 21.5-12.6 10.6-19.7 16.1-20.8 16.1-.5 0-4.2-2.5-8.3-5.5zm112.7-93.2l-23.1-20.8c-.6-.5-4.9-4.4-9.6-8.5-4.7-4.1-8.7-7.7-9-8-.3-.3-5-4.5-10.5-9.5-5.5-4.9-10.2-9.2-10.5-9.5-.3-.3-4.3-3.9-9-8s-9-7.9-9.6-8.5c-.6-.5-4.6-4.1-9-8-4.3-3.8-10.6-9.5-13.9-12.5-3.3-3.1-9.8-8.9-14.5-13-4.7-4.1-10.7-9.6-13.5-12.1-2.7-2.5-11.7-10.6-20-17.9-8.2-7.3-17.2-15.3-20-17.9-2.7-2.5-8.8-8-13.5-12.1-4.7-4.1-9-7.9-9.6-8.5-.6-.5-4.6-4.1-8.9-8-4.3-3.8-10.4-9.3-13.4-12.1-3.1-2.8-9.6-8.6-14.6-13-4.9-4.3-9.7-8.5-10.5-9.4-.8-.8-5.3-4.9-10-9-4.7-4-8.9-7.9-9.5-8.4-.5-.6-4.8-4.5-9.5-8.6s-10.5-9.3-12.9-11.5c-5.5-5-5-4.6-15.1-13.5-4.7-4.1-8.7-7.7-9-8-.3-.3-5-4.5-10.5-9.5-5.5-4.9-10.2-9.2-10.5-9.5-.3-.3-4.5-4.1-9.5-8.4-4.9-4.3-11.3-10-14-12.5-2.8-2.5-7-6.4-9.5-8.5-2.5-2.1-6.7-6-9.5-8.5-2.7-2.5-8.8-8-13.5-12.1-4.7-4.1-10.8-9.7-13.6-12.3-2.8-2.6-5.9-5.4-6.9-6.1-2.7-1.9-2.3-2.6 21-31.1 5-6.1 10.3-12.8 11.9-14.8 1.6-2 3.8-3.7 4.7-3.7 1.7 0 8.3 5.7 19.9 17 2.5 2.5 10.6 10.1 18 17s18.8 17.7 25.3 24c6.6 6.3 12.5 12 13.1 12.5 2.8 2.4 17 15.8 28.1 26.4 6.6 6.4 18.1 17.2 25.5 24.1 7.4 6.9 15.5 14.5 18 17 2.6 2.5 10.6 10.1 18 17 7.3 6.9 17.9 16.8 23.4 22.1 12.2 11.7 15.5 14.8 32.6 30.9 7.4 6.9 15.5 14.5 18 17s7.5 7.2 11.1 10.5c3.5 3.3 14.5 13.6 24.4 23 9.9 9.3 21.8 20.6 26.5 25 4.7 4.4 12.3 11.7 17 16.1 10.6 10.2 15.9 15.2 24.6 23.3 3.8 3.5 14.5 13.7 23.9 22.5 9.3 8.9 20.1 19 23.9 22.6 19.8 18.6 19.9 18.8 16 21.9-1.4 1.1-6 5.1-10.2 8.9-4.3 3.8-9.5 8.4-11.7 10.3-2.2 1.9-5.3 4.6-7 6.1-1.6 1.6-3.3 2.8-3.7 2.8-.4 0-3.2-2.1-6.1-4.7zm92.4-84.1c-2.9-3.1-11.2-11.8-18.5-19.3-7.2-7.4-18-18.7-24.1-25-29.5-30.7-80.7-83.8-88-91.4-2.7-2.8-10-10.3-16-16.6-6.1-6.2-22.3-23.1-36-37.4-13.8-14.3-29.9-31.1-36-37.4-6-6.3-16.9-17.6-24.1-25-13.8-14.3-17.6-18.2-33.9-35.2-9.8-10.3-49.8-51.9-73-75.9-6.7-6.9-18.4-19-26.2-27-7.7-8-15.3-16-16.8-17.8-2.7-3.2-2.7-3.3-.9-6 4.2-6.5 17.8-23.2 18.9-23.2 1.3 0 15.4 14.5 49.6 51.5 10.1 10.9 21.6 23.1 26.4 28 2.2 2.2 9 9.4 15 16 6.1 6.6 12.4 13.3 14 15 5.4 5.5 42.5 45 52.6 56 5.9 6.4 16.7 17.9 26.4 27.9 2.2 2.3 8.5 9.1 14 15.1 5.5 5.9 12.3 13.1 15 16 4.2 4.3 18.6 19.6 30.2 32.2 8 8.5 41.9 44.5 49.3 52.2 1.9 2 8.5 9 14.5 15.5 6.1 6.6 12.8 13.8 15 16a5056.05 5056.05 0 0 1 31 33.2c1.1 1.1 5.6 5.9 10 10.5 32.8 34.7 37.5 39.9 37.5 41.5 0 .6-2.1 2.8-4.7 5-2.5 2.1-5.1 4.4-5.7 4.9-3.7 3.4-7.9 6.5-8.9 6.4-.7 0-3.6-2.6-6.6-5.7z" fill="url(#b)" transform="rotate(176 762.67 587.5)"/></g></svg>